<svg width="20" height="20" viewBox="0 0 20 20" fill="none" xmlns="http://www.w3.org/2000/svg">
<path d="M0 1.5C0 0.67157 0.67157 0 1.5 0H16.5C17.3284 0 18 0.67157 18 1.5V3C18 3.82843 17.3284 4.5 16.5 4.5H1.5C0.67157 4.5 0 3.82843 0 3V1.5ZM1 6H17V8.4982C16.2304 8.1772 15.3859 8 14.5 8C13.4178 8 12.3974 8.2645 11.4998 8.7323C11.4904 8.3263 11.1583 8 10.75 8H7.25C6.83579 8 6.5 8.3358 6.5 8.75C6.5 9.1642 6.83579 9.5 7.25 9.5H10.3464C8.9127 10.6923 8 12.4896 8 14.5C8 15.7886 8.375 16.9897 9.0218 18H4.75C2.67893 18 1 16.3211 1 14.25V6ZM20 14.5C20 17.5376 17.5376 20 14.5 20C11.4624 20 9 17.5376 9 14.5C9 11.4624 11.4624 9 14.5 9C17.5376 9 20 11.4624 20 14.5ZM13.3536 12.3536C13.5488 12.1583 13.5488 11.8417 13.3536 11.6464C13.1583 11.4512 12.8417 11.4512 12.6464 11.6464L11.1464 13.1464C10.9512 13.3417 10.9512 13.6583 11.1464 13.8536L12.6464 15.3536C12.8417 15.5488 13.1583 15.5488 13.3536 15.3536C13.5488 15.1583 13.5488 14.8417 13.3536 14.6464L12.7071 14H14.75C15.9926 14 17 15.0074 17 16.25V16.5C17 16.7761 17.2239 17 17.5 17C17.7761 17 18 16.7761 18 16.5V16.25C18 14.4551 16.5449 13 14.75 13H12.7071L13.3536 12.3536Z" fill="#42C8D0"/>
</svg>
