<svg width="54" height="54" viewBox="0 0 54 54" fill="none" xmlns="http://www.w3.org/2000/svg">
<path d="M3.74757 0.91916C2.96653 0.138094 1.70019 0.138067 0.919145 0.919107C0.138078 1.70015 0.138052 2.96649 0.919092 3.74753L6.02786 8.85641C2.7053 10.0693 0.333331 13.2577 0.333331 17V42.3333C0.333331 47.1197 4.21352 51 9 51H45C45.9544 51 46.8728 50.8459 47.7315 50.5608L50.2517 53.0813C51.0328 53.8624 52.2992 53.8624 53.0803 53.0813C53.8613 52.3003 53.8613 51.0339 53.0803 50.2528L3.74757 0.91916ZM44.1707 47H9C6.42266 47 4.33333 44.9107 4.33333 42.3333V17C4.33333 14.4227 6.42266 12.3333 9 12.3333H9.50475L17.7998 20.6286C16.0522 22.7131 15 25.4003 15 28.3333C15 34.9608 20.3726 40.3333 27 40.3333C29.9328 40.3333 32.62 39.2811 34.7045 37.5336L44.1707 47ZM20.6447 23.4736L31.8597 34.6888C30.5125 35.7203 28.8277 36.3333 27 36.3333C22.5816 36.3333 19 32.7517 19 28.3333C19 26.5053 19.613 24.8208 20.6447 23.4736ZM24.9864 16.5015L29.0955 20.6106C31.8296 21.3507 33.9827 23.504 34.7227 26.2381L38.8317 30.3472C38.9424 29.6923 39 29.0195 39 28.3333C39 21.7059 33.6275 16.3333 27 16.3333C26.3139 16.3333 25.6411 16.3909 24.9864 16.5015ZM49.6667 17V41.1821L53.3045 44.8203C53.5403 44.0325 53.6667 43.1976 53.6667 42.3333V17C53.6667 12.2136 49.7864 8.33335 45 8.33335H39.4781L37.3059 4.6358C36.2285 2.80143 34.26 1.67481 32.1325 1.67481H21.9931C19.9074 1.67481 17.9713 2.75791 16.88 4.53521L15.4117 6.92649L18.3198 9.83471L20.2887 6.62828L20.4611 6.38892C20.8379 5.94007 21.3971 5.67481 21.9931 5.67481H32.1325C32.8416 5.67481 33.4979 6.05036 33.8571 6.6618L36.6088 11.3464C36.968 11.9578 37.6243 12.3333 38.3333 12.3333H45C47.5773 12.3333 49.6667 14.4227 49.6667 17Z" fill="#FDF9F9"/>
</svg>
